<svg xmlns="http://www.w3.org/2000/svg" viewBox="0 0 86.25 118.45"><path d="M51.18 0a1.5 1.5 0 0 0-.54 3 39.86 39.86 0 0 1 32.61 39.2v33.36a1.5 1.5 0 0 0 3 0V42.2A42.86 42.86 0 0 0 51.18 0zM3 75.56V42.2a40 40 0 0 1 31.62-39A1.5 1.5 0 0 0 34 .24a43.06 43.06 0 0 0-34 42v33.32A42.64 42.64 0 0 0 7.63 100a1.5 1.5 0 0 0 2.46-1.71A39.65 39.65 0 0 1 3 75.56zM84.4 81.19a1.49 1.49 0 0 0-1.73 1.22 39.78 39.78 0 0 1-39.3 33h-.48a39.66 39.66 0 0 1-22.53-7 1.5 1.5 0 0 0-1.7 2.47 42.65 42.65 0 0 0 24.23 7.5h.48a42.78 42.78 0 0 0 42.25-35.45 1.5 1.5 0 0 0-1.22-1.74z"/><path d="M9.87 56.45A1.5 1.5 0 0 0 8.37 58v16.44A34.61 34.61 0 0 0 42.95 109h.36a34.53 34.53 0 0 0 28.81-15.45 1.5 1.5 0 0 0-2.5-1.66A31.53 31.53 0 0 1 43.3 106h-.36a31.61 31.61 0 0 1-31.57-31.56V58a1.5 1.5 0 0 0-1.5-1.55zM8.37 43.32a1.5 1.5 0 0 0 3 0 31.61 31.61 0 0 1 31.58-31.57h.36a31.61 31.61 0 0 1 31.57 31.57v31.12a31.6 31.6 0 0 1-1.38 9.26 1.5 1.5 0 1 0 2.87.88 34.59 34.59 0 0 0 1.51-10.14V43.32A34.61 34.61 0 0 0 43.3 8.75h-.36A34.61 34.61 0 0 0 8.37 43.32z"/><path d="M43.25 18.19H43a26.29 26.29 0 0 0-26.25 26.25v28.88A26.29 26.29 0 0 0 43 99.58h.24a1.5 1.5 0 0 0 0-3H43a23.28 23.28 0 0 1-23.25-23.26V44.44A23.28 23.28 0 0 1 43 21.19h.24A23.3 23.3 0 0 1 58 26.48a1.5 1.5 0 1 0 1.91-2.31 26.3 26.3 0 0 0-16.66-5.98zM51 95.26a1.5 1.5 0 0 0 1 2.83 26.3 26.3 0 0 0 17.5-24.77V44.44a26 26 0 0 0-2.74-11.7 1.5 1.5 0 1 0-2.68 1.34 23 23 0 0 1 2.42 10.36v28.88A23.29 23.29 0 0 1 51 95.26z"/><path d="M43.19 27.62h-.12a18 18 0 0 0-17.95 17.94V72.2a18 18 0 0 0 17.95 17.94h.12A18 18 0 0 0 61.13 72.2V45.56a18 18 0 0 0-17.94-17.94zM58.13 72.2a15 15 0 0 1-14.94 14.94h-.12A15 15 0 0 1 28.12 72.2V45.56a15 15 0 0 1 14.95-14.94h.12a15 15 0 0 1 14.94 14.94z"/><path d="M43.13 37.06a9.64 9.64 0 0 0-9.63 9.63v22.93a1.5 1.5 0 0 0 3 0V46.68a6.63 6.63 0 0 1 13.26 0V51a1.5 1.5 0 0 0 3 0v-4.32a9.64 9.64 0 0 0-9.63-9.62zM51.25 59.12a1.5 1.5 0 0 0-1.5 1.5v10.46a6.63 6.63 0 0 1-9.21 6.11A1.5 1.5 0 1 0 39.38 80a9.63 9.63 0 0 0 13.38-8.87V60.62a1.5 1.5 0 0 0-1.51-1.5z"/><path d="M44.63 69.88v-22a1.5 1.5 0 0 0-3 0v22a1.5 1.5 0 0 0 3 0z"/></svg>
