<svg xmlns="http://www.w3.org/2000/svg" viewBox="0 0 20 20"><path d="M14.36 12a16.52 16.52 0 0 0 .14-2 16.52 16.52 0 0 0-.14-2h3.38a8.24 8.24 0 0 1 .26 2 8.24 8.24 0 0 1-.26 2zm-1.77 5.56A15.65 15.65 0 0 0 14 14h2.95a8 8 0 0 1-4.36 3.56zM12.34 12H7.66a14.71 14.71 0 0 1-.16-2 14.58 14.58 0 0 1 .16-2h4.68a14.58 14.58 0 0 1 .16 2 14.71 14.71 0 0 1-.16 2zM10 18a14.09 14.09 0 0 1-1.91-4h3.82A14.09 14.09 0 0 1 10 18zM6 6H3a8 8 0 0 1 4.41-3.56A15.65 15.65 0 0 0 6 6zm-2.92 8H6a15.65 15.65 0 0 0 1.38 3.56A8 8 0 0 1 3.08 14zm-.82-2A8.24 8.24 0 0 1 2 10a8.24 8.24 0 0 1 .26-2h3.38a16.52 16.52 0 0 0-.14 2 16.52 16.52 0 0 0 .14 2zM10 2a14.09 14.09 0 0 1 1.91 4H8.09A14.09 14.09 0 0 1 10 2zm6.92 4H14a15.65 15.65 0 0 0-1.38-3.56A8 8 0 0 1 16.92 6zM10 0a10 10 0 1 0 10 10A10 10 0 0 0 10 0z" /></svg>
