<svg width="16" height="22" xmlns="http://www.w3.org/2000/svg"><path d="M6.07 13.003l-.523-2.119c3.035-.488 5.058-1.038 6.07-1.648 1.011-.61 1.517-1.44 1.517-2.486v-.785c0-1.029-.31-1.888-.929-2.577-.619-.689-1.966-1.033-4.042-1.033-2.215 0-3.61.331-4.186.994-.576.663-.924 1.823-1.047 3.48L.314 6.567c.122-2.442.741-4.147 1.858-5.115C3.288.484 5.276 0 8.137 0c2.86 0 4.845.545 5.952 1.635 1.108 1.09 1.661 2.43 1.661 4.016v1.204c0 1.919-.784 3.292-2.354 4.12-1.57.83-4.012 1.505-7.326 2.028zm.916 8.451c-.872 0-1.509-.179-1.91-.536-.401-.358-.602-.912-.602-1.662v-.732c0-.768.2-1.335.602-1.7.401-.367 1.038-.55 1.91-.55.872 0 1.513.183 1.923.55.41.365.615.932.615 1.7v.732c0 .75-.21 1.304-.628 1.662-.419.357-1.056.536-1.91.536z" /></svg>
